<mxfile host="app.diagrams.net" modified="2021-05-28T01:19:33.592Z" agent="5.0 (Windows NT 10.0; Win64; x64) AppleWebKit/537.36 (KHTML, like Gecko) Chrome/91.0.4472.77 Safari/537.36 Edg/91.0.864.36" etag="57NdaptuOiujgUgg6lPg" version="14.6.13" type="github">
  <diagram id="Mu2YDEGUoZ-c-0_DNSwV" name="第 1 页">
    <mxGraphModel dx="1422" dy="833" grid="1" gridSize="10" guides="1" tooltips="1" connect="1" arrows="1" fold="1" page="1" pageScale="1" pageWidth="827" pageHeight="1169" math="0" shadow="0">
      <root>
        <mxCell id="0" />
        <mxCell id="1" parent="0" />
        <mxCell id="sw-Na7KyWoY28H-48HJ7-5" value="" style="group" vertex="1" connectable="0" parent="1">
          <mxGeometry x="110" y="340" width="30" height="100" as="geometry" />
        </mxCell>
        <mxCell id="sw-Na7KyWoY28H-48HJ7-1" value="" style="rounded=0;whiteSpace=wrap;html=1;rotation=90;" vertex="1" parent="sw-Na7KyWoY28H-48HJ7-5">
          <mxGeometry x="-35" y="35" width="100" height="30" as="geometry" />
        </mxCell>
        <mxCell id="sw-Na7KyWoY28H-48HJ7-2" value="系统主界面" style="whiteSpace=wrap;html=1;rotation=90;horizontal=0;verticalAlign=middle;strokeColor=#FCFCFC;" vertex="1" parent="sw-Na7KyWoY28H-48HJ7-5">
          <mxGeometry x="-30" y="45" width="90" height="10" as="geometry" />
        </mxCell>
        <mxCell id="sw-Na7KyWoY28H-48HJ7-8" value="" style="group" vertex="1" connectable="0" parent="1">
          <mxGeometry x="350" y="350" width="40" height="80" as="geometry" />
        </mxCell>
        <mxCell id="sw-Na7KyWoY28H-48HJ7-6" value="" style="rhombus;whiteSpace=wrap;html=1;" vertex="1" parent="sw-Na7KyWoY28H-48HJ7-8">
          <mxGeometry width="40" height="80" as="geometry" />
        </mxCell>
        <mxCell id="sw-Na7KyWoY28H-48HJ7-7" value="选择" style="whiteSpace=wrap;html=1;rotation=90;horizontal=0;verticalAlign=middle;strokeColor=#FCFCFC;" vertex="1" parent="sw-Na7KyWoY28H-48HJ7-8">
          <mxGeometry x="7.5" y="35" width="25" height="10" as="geometry" />
        </mxCell>
        <mxCell id="sw-Na7KyWoY28H-48HJ7-9" value="" style="group" vertex="1" connectable="0" parent="1">
          <mxGeometry x="170" y="340" width="30" height="100" as="geometry" />
        </mxCell>
        <mxCell id="sw-Na7KyWoY28H-48HJ7-10" value="" style="rounded=0;whiteSpace=wrap;html=1;rotation=90;" vertex="1" parent="sw-Na7KyWoY28H-48HJ7-9">
          <mxGeometry x="-35" y="35" width="100" height="30" as="geometry" />
        </mxCell>
        <mxCell id="sw-Na7KyWoY28H-48HJ7-11" value="参数输入" style="whiteSpace=wrap;html=1;rotation=90;horizontal=0;verticalAlign=middle;strokeColor=#FCFCFC;" vertex="1" parent="sw-Na7KyWoY28H-48HJ7-9">
          <mxGeometry x="-30" y="45" width="90" height="10" as="geometry" />
        </mxCell>
        <mxCell id="sw-Na7KyWoY28H-48HJ7-12" value="" style="group" vertex="1" connectable="0" parent="1">
          <mxGeometry x="230" y="340" width="30" height="100" as="geometry" />
        </mxCell>
        <mxCell id="sw-Na7KyWoY28H-48HJ7-13" value="" style="rounded=0;whiteSpace=wrap;html=1;rotation=90;" vertex="1" parent="sw-Na7KyWoY28H-48HJ7-12">
          <mxGeometry x="-35" y="35" width="100" height="30" as="geometry" />
        </mxCell>
        <mxCell id="sw-Na7KyWoY28H-48HJ7-14" value="模拟计算" style="whiteSpace=wrap;html=1;rotation=90;horizontal=0;verticalAlign=middle;strokeColor=#FCFCFC;" vertex="1" parent="sw-Na7KyWoY28H-48HJ7-12">
          <mxGeometry x="-30" y="45" width="90" height="10" as="geometry" />
        </mxCell>
        <mxCell id="sw-Na7KyWoY28H-48HJ7-15" value="" style="group" vertex="1" connectable="0" parent="1">
          <mxGeometry x="290" y="340" width="30" height="100" as="geometry" />
        </mxCell>
        <mxCell id="sw-Na7KyWoY28H-48HJ7-16" value="" style="rounded=0;whiteSpace=wrap;html=1;rotation=90;" vertex="1" parent="sw-Na7KyWoY28H-48HJ7-15">
          <mxGeometry x="-35" y="35" width="100" height="30" as="geometry" />
        </mxCell>
        <mxCell id="sw-Na7KyWoY28H-48HJ7-17" value="结果分析" style="whiteSpace=wrap;html=1;rotation=90;horizontal=0;verticalAlign=middle;strokeColor=#FCFCFC;" vertex="1" parent="sw-Na7KyWoY28H-48HJ7-15">
          <mxGeometry x="-30" y="45" width="90" height="10" as="geometry" />
        </mxCell>
        <mxCell id="sw-Na7KyWoY28H-48HJ7-19" style="edgeStyle=orthogonalEdgeStyle;rounded=0;orthogonalLoop=1;jettySize=auto;html=1;exitX=0.5;exitY=0;exitDx=0;exitDy=0;entryX=0.5;entryY=1;entryDx=0;entryDy=0;" edge="1" parent="1" source="sw-Na7KyWoY28H-48HJ7-10" target="sw-Na7KyWoY28H-48HJ7-13">
          <mxGeometry relative="1" as="geometry" />
        </mxCell>
        <mxCell id="sw-Na7KyWoY28H-48HJ7-23" style="edgeStyle=orthogonalEdgeStyle;rounded=0;orthogonalLoop=1;jettySize=auto;html=1;exitX=0.5;exitY=0;exitDx=0;exitDy=0;entryX=0.5;entryY=1;entryDx=0;entryDy=0;" edge="1" parent="1" source="sw-Na7KyWoY28H-48HJ7-13" target="sw-Na7KyWoY28H-48HJ7-16">
          <mxGeometry relative="1" as="geometry" />
        </mxCell>
        <mxCell id="sw-Na7KyWoY28H-48HJ7-24" style="edgeStyle=orthogonalEdgeStyle;rounded=0;orthogonalLoop=1;jettySize=auto;html=1;exitX=0.5;exitY=0;exitDx=0;exitDy=0;entryX=0;entryY=0.5;entryDx=0;entryDy=0;" edge="1" parent="1" source="sw-Na7KyWoY28H-48HJ7-16" target="sw-Na7KyWoY28H-48HJ7-6">
          <mxGeometry relative="1" as="geometry" />
        </mxCell>
        <mxCell id="sw-Na7KyWoY28H-48HJ7-31" value="" style="group" vertex="1" connectable="0" parent="1">
          <mxGeometry x="432.5" y="300" width="67.5" height="90" as="geometry" />
        </mxCell>
        <mxCell id="sw-Na7KyWoY28H-48HJ7-32" value="" style="rounded=0;whiteSpace=wrap;html=1;rotation=90;" vertex="1" parent="sw-Na7KyWoY28H-48HJ7-31">
          <mxGeometry x="-27.96" y="21.02" width="91.14" height="27" as="geometry" />
        </mxCell>
        <mxCell id="sw-Na7KyWoY28H-48HJ7-33" value="不确定度分析" style="whiteSpace=wrap;html=1;rotation=90;horizontal=0;verticalAlign=middle;strokeColor=#FCFCFC;" vertex="1" parent="sw-Na7KyWoY28H-48HJ7-31">
          <mxGeometry x="-23.47826086956522" y="29.25" width="82.17391304347827" height="9" as="geometry" />
        </mxCell>
        <mxCell id="sw-Na7KyWoY28H-48HJ7-34" value="" style="group" vertex="1" connectable="0" parent="1">
          <mxGeometry x="432.5" y="410" width="67.5" height="90" as="geometry" />
        </mxCell>
        <mxCell id="sw-Na7KyWoY28H-48HJ7-35" value="" style="rounded=0;whiteSpace=wrap;html=1;rotation=90;" vertex="1" parent="sw-Na7KyWoY28H-48HJ7-34">
          <mxGeometry x="-27.96" y="21.02" width="91.14" height="27" as="geometry" />
        </mxCell>
        <mxCell id="sw-Na7KyWoY28H-48HJ7-36" value="灵敏度分析" style="whiteSpace=wrap;html=1;rotation=90;horizontal=0;verticalAlign=middle;strokeColor=#FCFCFC;" vertex="1" parent="sw-Na7KyWoY28H-48HJ7-34">
          <mxGeometry x="-23.47826086956522" y="29.25" width="82.17391304347827" height="9" as="geometry" />
        </mxCell>
        <mxCell id="sw-Na7KyWoY28H-48HJ7-40" style="edgeStyle=orthogonalEdgeStyle;rounded=0;orthogonalLoop=1;jettySize=auto;html=1;exitX=1;exitY=0.5;exitDx=0;exitDy=0;entryX=0.5;entryY=1;entryDx=0;entryDy=0;" edge="1" parent="1" source="sw-Na7KyWoY28H-48HJ7-6" target="sw-Na7KyWoY28H-48HJ7-35">
          <mxGeometry relative="1" as="geometry" />
        </mxCell>
        <mxCell id="sw-Na7KyWoY28H-48HJ7-42" style="edgeStyle=orthogonalEdgeStyle;rounded=0;orthogonalLoop=1;jettySize=auto;html=1;exitX=1;exitY=0.5;exitDx=0;exitDy=0;entryX=0.5;entryY=1;entryDx=0;entryDy=0;" edge="1" parent="1" source="sw-Na7KyWoY28H-48HJ7-6" target="sw-Na7KyWoY28H-48HJ7-32">
          <mxGeometry relative="1" as="geometry" />
        </mxCell>
        <mxCell id="sw-Na7KyWoY28H-48HJ7-48" value="" style="group" vertex="1" connectable="0" parent="1">
          <mxGeometry x="500" y="350" width="40" height="80" as="geometry" />
        </mxCell>
        <mxCell id="sw-Na7KyWoY28H-48HJ7-49" value="" style="rhombus;whiteSpace=wrap;html=1;" vertex="1" parent="sw-Na7KyWoY28H-48HJ7-48">
          <mxGeometry width="40" height="80" as="geometry" />
        </mxCell>
        <mxCell id="sw-Na7KyWoY28H-48HJ7-50" value="调整参数" style="whiteSpace=wrap;html=1;rotation=90;horizontal=0;verticalAlign=middle;strokeColor=#FCFCFC;" vertex="1" parent="sw-Na7KyWoY28H-48HJ7-48">
          <mxGeometry x="7.5" y="35" width="25" height="10" as="geometry" />
        </mxCell>
        <mxCell id="sw-Na7KyWoY28H-48HJ7-51" style="edgeStyle=orthogonalEdgeStyle;rounded=0;orthogonalLoop=1;jettySize=auto;html=1;exitX=0.5;exitY=0;exitDx=0;exitDy=0;entryX=0;entryY=0.5;entryDx=0;entryDy=0;" edge="1" parent="1" source="sw-Na7KyWoY28H-48HJ7-35" target="sw-Na7KyWoY28H-48HJ7-49">
          <mxGeometry relative="1" as="geometry" />
        </mxCell>
        <mxCell id="sw-Na7KyWoY28H-48HJ7-53" style="edgeStyle=orthogonalEdgeStyle;rounded=0;orthogonalLoop=1;jettySize=auto;html=1;exitX=0.5;exitY=0;exitDx=0;exitDy=0;entryX=0;entryY=0.5;entryDx=0;entryDy=0;" edge="1" parent="1" source="sw-Na7KyWoY28H-48HJ7-32" target="sw-Na7KyWoY28H-48HJ7-49">
          <mxGeometry relative="1" as="geometry" />
        </mxCell>
        <mxCell id="sw-Na7KyWoY28H-48HJ7-57" value="" style="group" vertex="1" connectable="0" parent="1">
          <mxGeometry x="560" y="340" width="30" height="100" as="geometry" />
        </mxCell>
        <mxCell id="sw-Na7KyWoY28H-48HJ7-58" value="" style="rounded=0;whiteSpace=wrap;html=1;rotation=90;" vertex="1" parent="sw-Na7KyWoY28H-48HJ7-57">
          <mxGeometry x="-35" y="35" width="100" height="30" as="geometry" />
        </mxCell>
        <mxCell id="sw-Na7KyWoY28H-48HJ7-59" value="结束" style="whiteSpace=wrap;html=1;rotation=90;horizontal=0;verticalAlign=middle;strokeColor=#FCFCFC;" vertex="1" parent="sw-Na7KyWoY28H-48HJ7-57">
          <mxGeometry x="-30" y="45" width="90" height="10" as="geometry" />
        </mxCell>
        <mxCell id="sw-Na7KyWoY28H-48HJ7-60" style="edgeStyle=orthogonalEdgeStyle;rounded=0;orthogonalLoop=1;jettySize=auto;html=1;exitX=1;exitY=0.5;exitDx=0;exitDy=0;entryX=0.5;entryY=1;entryDx=0;entryDy=0;" edge="1" parent="1" source="sw-Na7KyWoY28H-48HJ7-49" target="sw-Na7KyWoY28H-48HJ7-58">
          <mxGeometry relative="1" as="geometry" />
        </mxCell>
        <mxCell id="sw-Na7KyWoY28H-48HJ7-61" value="否" style="text;html=1;resizable=0;autosize=1;align=center;verticalAlign=middle;points=[];fillColor=none;strokeColor=none;rounded=0;" vertex="1" parent="1">
          <mxGeometry x="530" y="360" width="30" height="20" as="geometry" />
        </mxCell>
        <mxCell id="sw-Na7KyWoY28H-48HJ7-63" value="是" style="text;html=1;resizable=0;autosize=1;align=center;verticalAlign=middle;points=[];fillColor=none;strokeColor=none;rounded=0;" vertex="1" parent="1">
          <mxGeometry x="490" y="430" width="30" height="20" as="geometry" />
        </mxCell>
        <mxCell id="sw-Na7KyWoY28H-48HJ7-66" style="edgeStyle=orthogonalEdgeStyle;rounded=0;orthogonalLoop=1;jettySize=auto;html=1;exitX=0.5;exitY=0;exitDx=0;exitDy=0;entryX=0.5;entryY=1;entryDx=0;entryDy=0;" edge="1" parent="1" source="sw-Na7KyWoY28H-48HJ7-1" target="sw-Na7KyWoY28H-48HJ7-10">
          <mxGeometry relative="1" as="geometry" />
        </mxCell>
        <mxCell id="sw-Na7KyWoY28H-48HJ7-68" style="edgeStyle=orthogonalEdgeStyle;rounded=0;orthogonalLoop=1;jettySize=auto;html=1;exitX=0.5;exitY=1;exitDx=0;exitDy=0;entryX=1;entryY=0.5;entryDx=0;entryDy=0;" edge="1" parent="1" source="sw-Na7KyWoY28H-48HJ7-49" target="sw-Na7KyWoY28H-48HJ7-10">
          <mxGeometry relative="1" as="geometry">
            <Array as="points">
              <mxPoint x="520" y="500" />
              <mxPoint x="185" y="500" />
            </Array>
          </mxGeometry>
        </mxCell>
      </root>
    </mxGraphModel>
  </diagram>
</mxfile>
